<svg xmlns="http://www.w3.org/2000/svg" xmlns:xlink="http://www.w3.org/1999/xlink" xmlns:inkscape="http://www.inkscape.org/namespaces/inkscape" version="1.1" viewBox="101.67 229.73 158.56 136.21">
<defs>
<clipPath id="clip_0">
<path transform="matrix(1,0,0,-1,0,595.2756)" d="M0 0H841.8898V595.2756H0Z" clip-rule="evenodd"/>
</clipPath>
</defs>
<g clip-path="url(#clip_0)">
<path transform="matrix(.1,0,0,-.1,0,595.2756)" d="M1719.18 3531.82V3648.92C1769.91 3571.65 1858.26 3574.91 1926.84 3538.96 1969.69 3516.5 1995.45 3481.06 1995.59 3432.77 1996.56 3121.51 1996.26 2810.24 1996.29 2498.97 1996.29 2495.9 1995.08 2492.84 1994.14 2488.39 1902.77 2488.39 1811.4 2488.39 1720.03 2488.39H1719.18V2639.7L1931.46 2572.04V2613.54L1719.18 2681.2V2744.97L1931.46 2677.3V2718.8L1719.18 2786.47V2850.24L1931.46 2782.57V2824.07L1719.18 2891.74V2955.51L1931.46 2887.84V2929.34L1719.18 2997.01V3060.78L1931.46 2993.11V3034.61L1719.18 3102.28V3166.04L1931.46 3098.38V3139.88L1719.18 3207.55V3271.31L1931.46 3203.64V3245.14L1719.18 3312.81V3376.58L1931.46 3308.91V3350.41L1719.18 3418.08V3481.85L1931.46 3414.18V3455.68L1719.18 3523.35ZM2121.21 3113.93V3113.93L2121.18 3147.68C2148.59 3111.86 2187.32 3107.21 2222.54 3094.43 2259.75 3080.92 2279.3 3054.48 2279.1 3012.57 2278.27 2838.58 2278.75 2664.58 2278.75 2488.72H2250.8V2475.37H2121.21V2596.55L2223.53 2563.94V2590.06L2121.21 2622.68V2662.81L2223.53 2630.19V2656.31L2121.21 2688.93V2729.05L2223.53 2696.44V2722.56L2121.21 2755.18V2795.3L2223.53 2762.69V2788.81L2121.21 2821.43V2861.56L2223.53 2828.94V2855.06L2121.21 2887.68V2927.8L2223.53 2895.19V2921.3L2121.21 2953.93V2994.06L2223.53 2961.44V2987.56L2121.21 3020.18V3060.3L2223.53 3027.69V3053.8L2121.21 3086.43ZM1423.42 3271.26V3271.17L1547.47 3231.63V3199.75L1423.42 3239.29V3190.3L1547.47 3150.76V3118.88L1423.42 3158.42V3157.97L1423.11 3158.04C1423.11 3141.82 1423.11 3128.12 1423.11 3111.9L1423.42 3111.84V3109.44L1547.47 3069.89V3038.02L1423.42 3077.55V3028.57L1547.47 2989.03V2957.15L1423.32 2996.73V2952.64L1423.42 2952.63V2947.71L1547.47 2908.16V2876.28L1423.42 2915.82V2866.84L1547.47 2827.3V2795.41L1423.42 2834.96V2785.98L1547.47 2746.43V2714.55L1423.42 2754.09V2705.11L1547.47 2665.57V2633.68L1423.35 2673.25V2634.18L1423.42 2634.17V2516.67H1423.72V2488.68C1507.79 2488.68 1590.3 2488.68 1673.27 2488.68 1673.27 2877.42 1673.27 3264.35 1673.27 3655.42 1647.15 3638.68 1625.11 3620.84 1600.14 3609.4 1559.94 3590.99 1547.1 3564.01 1549.74 3519.48 1554.25 3443.44 1550.98 3366.95 1550.98 3287.78 1502.5 3301.46 1456.32 3310.27 1423.42 3354.07V3292.64ZM1502.43 2522.19V2554.09H1549.42C1549.42 2542.5 1549.42 2533.39 1549.42 2522.19ZM2025.85 3109.36C2049.62 3124.21 2070.79 3137.46 2093.94 3151.93 2093.94 2929.97 2093.94 2710.34 2093.94 2488.78 2071.72 2488.78 2049.72 2488.78 2025.85 2488.78 2025.85 2695.49 2025.85 2902.41 2025.85 3109.36ZM1297.89 3305.3C1326.52 3323.33 1355.69 3341.69 1387.07 3361.46 1387.07 3069.12 1387.07 2779.87 1387.07 2488.74 1357.55 2488.74 1328.65 2488.74 1297.89 2488.74 1297.89 2760.66 1297.89 3032.18 1297.89 3305.3" fill="#074ea2"/>
<path transform="matrix(.1,0,0,-.1,0,595.2756)" d="M1016.7 2338.28C1178.6 2446.76 1292.68 2475.82 1467.79 2475.17 1569.97 2474.79 1697.53 2439.61 1863.03 2428.22 2092.14 2412.46 2424.82 2456.64 2602.29 2605.3 2329.84 2502.65 2058.53 2494.25 1839.88 2521.53 1663.95 2543.48 1479.42 2584.8 1297.63 2525.56 1132.96 2471.91 1034.45 2370.38 1016.7 2338.28" fill="#8dd8f8" fill-rule="evenodd"/>
<path transform="matrix(.1,0,0,-.1,0,595.2756)" d="M1103.29 2293.3C1224.66 2365.77 1308.39 2382.52 1435.22 2375.45 1509.22 2371.32 1600.3 2341.02 1719.75 2326.54 1885.12 2306.48 2127.78 2325.95 2261.94 2426.94 2060.71 2362.85 1863.86 2367 1706.5 2395 1579.89 2417.53 1447.77 2454.43 1313.85 2418.37 1192.55 2385.71 1117.36 2315.88 1103.29 2293.3" fill="#0095da" fill-rule="evenodd"/>
</g>
</svg>