<svg xmlns="http://www.w3.org/2000/svg" xmlns:xlink="http://www.w3.org/1999/xlink" xmlns:inkscape="http://www.inkscape.org/namespaces/inkscape" version="1.1" viewBox="101.67 229.73 638.52 136.21">
<defs>
<clipPath id="clip_0">
<path transform="matrix(1,0,0,-1,0,595.2756)" d="M0 0H841.8898V595.2756H0Z" clip-rule="evenodd"/>
</clipPath>
</defs>
<g clip-path="url(#clip_0)">
<path transform="matrix(.1,0,0,-.1,0,595.2756)" d="M1719.18 3531.82V3648.92C1769.91 3571.65 1858.26 3574.91 1926.84 3538.96 1969.69 3516.5 1995.45 3481.06 1995.59 3432.77 1996.56 3121.51 1996.26 2810.24 1996.29 2498.97 1996.29 2495.9 1995.08 2492.84 1994.14 2488.39 1902.77 2488.39 1811.4 2488.39 1720.03 2488.39H1719.18V2639.7L1931.46 2572.04V2613.54L1719.18 2681.2V2744.97L1931.46 2677.3V2718.8L1719.18 2786.47V2850.24L1931.46 2782.57V2824.07L1719.18 2891.74V2955.51L1931.46 2887.84V2929.34L1719.18 2997.01V3060.78L1931.46 2993.11V3034.61L1719.18 3102.28V3166.04L1931.46 3098.38V3139.88L1719.18 3207.55V3271.31L1931.46 3203.64V3245.14L1719.18 3312.81V3376.58L1931.46 3308.91V3350.41L1719.18 3418.08V3481.85L1931.46 3414.18V3455.68L1719.18 3523.35ZM2121.21 3113.93V3113.93L2121.18 3147.68C2148.59 3111.86 2187.32 3107.21 2222.54 3094.43 2259.75 3080.92 2279.3 3054.48 2279.1 3012.57 2278.27 2838.58 2278.75 2664.58 2278.75 2488.72H2250.8V2475.37H2121.21V2596.55L2223.53 2563.94V2590.06L2121.21 2622.68V2662.81L2223.53 2630.19V2656.31L2121.21 2688.93V2729.05L2223.53 2696.44V2722.56L2121.21 2755.18V2795.3L2223.53 2762.69V2788.81L2121.21 2821.43V2861.56L2223.53 2828.94V2855.06L2121.21 2887.68V2927.8L2223.53 2895.19V2921.3L2121.21 2953.93V2994.06L2223.53 2961.44V2987.56L2121.21 3020.18V3060.3L2223.53 3027.69V3053.8L2121.21 3086.43ZM1423.42 3271.26V3271.17L1547.47 3231.63V3199.75L1423.42 3239.29V3190.3L1547.47 3150.76V3118.88L1423.42 3158.42V3157.97L1423.11 3158.04C1423.11 3141.82 1423.11 3128.12 1423.11 3111.9L1423.42 3111.84V3109.44L1547.47 3069.89V3038.02L1423.42 3077.55V3028.57L1547.47 2989.03V2957.15L1423.32 2996.73V2952.64L1423.42 2952.63V2947.71L1547.47 2908.16V2876.28L1423.42 2915.82V2866.84L1547.47 2827.3V2795.41L1423.42 2834.96V2785.98L1547.47 2746.43V2714.55L1423.42 2754.09V2705.11L1547.47 2665.57V2633.68L1423.35 2673.25V2634.18L1423.42 2634.17V2516.67H1423.72V2488.68C1507.79 2488.68 1590.3 2488.68 1673.27 2488.68 1673.27 2877.42 1673.27 3264.35 1673.27 3655.42 1647.15 3638.68 1625.11 3620.84 1600.14 3609.4 1559.94 3590.99 1547.1 3564.01 1549.74 3519.48 1554.25 3443.44 1550.98 3366.95 1550.98 3287.78 1502.5 3301.46 1456.32 3310.27 1423.42 3354.07V3292.64ZM1502.43 2522.19V2554.09H1549.42C1549.42 2542.5 1549.42 2533.39 1549.42 2522.19ZM2025.85 3109.36C2049.62 3124.21 2070.79 3137.46 2093.94 3151.93 2093.94 2929.97 2093.94 2710.34 2093.94 2488.78 2071.72 2488.78 2049.72 2488.78 2025.85 2488.78 2025.85 2695.49 2025.85 2902.41 2025.85 3109.36ZM1297.89 3305.3C1326.52 3323.33 1355.69 3341.69 1387.07 3361.46 1387.07 3069.12 1387.07 2779.87 1387.07 2488.74 1357.55 2488.74 1328.65 2488.74 1297.89 2488.74 1297.89 2760.66 1297.89 3032.18 1297.89 3305.3" fill="#074ea2"/>
<path transform="matrix(.1,0,0,-.1,0,595.2756)" d="M1016.7 2338.28C1178.6 2446.76 1292.68 2475.82 1467.79 2475.17 1569.97 2474.79 1697.53 2439.61 1863.03 2428.22 2092.14 2412.46 2424.82 2456.64 2602.29 2605.3 2329.84 2502.65 2058.53 2494.25 1839.88 2521.53 1663.95 2543.48 1479.42 2584.8 1297.63 2525.56 1132.96 2471.91 1034.45 2370.38 1016.7 2338.28" fill="#8dd8f8" fill-rule="evenodd"/>
<path transform="matrix(.1,0,0,-.1,0,595.2756)" d="M1103.29 2293.3C1224.66 2365.77 1308.39 2382.52 1435.22 2375.45 1509.22 2371.32 1600.3 2341.02 1719.75 2326.54 1885.12 2306.48 2127.78 2325.95 2261.94 2426.94 2060.71 2362.85 1863.86 2367 1706.5 2395 1579.89 2417.53 1447.77 2454.43 1313.85 2418.37 1192.55 2385.71 1117.36 2315.88 1103.29 2293.3" fill="#0095da" fill-rule="evenodd"/>
<path transform="matrix(.1,0,0,-.1,0,595.2756)" d="M3255.3 3036.36H3138.23L3120.33 3085.25C3119.42 3088.46 3117.35 3090.07 3114.14 3090.07H2906.19C2903.43 3090.07 2901.37 3088.46 2899.99 3085.25L2882.77 3036.36H2765.72L2939.24 3519.05H3081.77ZM2944.75 3209.19C2943.83 3206.9 2944.06 3204.83 2945.43 3203 2946.81 3201.16 2948.65 3200.24 2950.95 3200.24H3070.07C3076.04 3200.24 3078.1 3203.22 3076.27 3209.19L3017.05 3374.45C3015.67 3377.66 3013.38 3379.27 3010.16 3379.27 3006.95 3379.27 3004.88 3377.66 3003.96 3374.45ZM3506.63 3278.05 3715.95 3036.36H3570.66L3430.19 3198.86C3427.9 3201.16 3425.37 3201.73 3422.62 3200.59 3419.86 3199.44 3418.48 3197.26 3418.48 3194.04V3036.36H3305.56V3519.05H3418.48V3361.36C3418.48 3358.15 3419.86 3356.09 3422.62 3355.17 3425.37 3354.25 3427.9 3354.94 3430.19 3357.23L3570.66 3519.05H3715.95ZM4158.02 3280.12C4169.95 3266.8 4179.02 3251.88 4185.21 3235.36 4191.41 3218.83 4194.51 3201.62 4194.51 3183.71 4194.51 3163.52 4190.72 3144.58 4183.14 3126.91 4175.57 3109.23 4165.13 3093.74 4151.82 3080.43 4138.51 3067.11 4123.01 3056.67 4105.34 3049.1 4087.66 3041.52 4068.73 3037.74 4048.53 3037.74H3790.32V3518.36H4048.53C4069.19 3518.36 4088.47 3514.57 4106.38 3507 4124.27 3499.43 4139.88 3488.52 4153.2 3474.29 4165.13 3460.98 4174.43 3445.6 4181.08 3428.16 4187.74 3410.71 4191.07 3392.13 4191.07 3372.38 4191.07 3337.04 4180.05 3306.28 4158.02 3280.12ZM3899.8 3339.33C3899.8 3335.2 3902.09 3333.14 3906.68 3333.14H4044.4C4054.04 3333.14 4062.53 3336.92 4069.88 3344.5 4077.22 3352.07 4080.89 3361.14 4080.89 3371.7 4081.36 3382.25 4077.91 3391.09 4070.57 3398.2 4063.22 3405.32 4054.5 3408.88 4044.4 3408.88H3906.68C3902.09 3408.88 3899.8 3406.81 3899.8 3402.68ZM3899.8 3153.42C3899.8 3149.29 3902.09 3147.22 3906.68 3147.22H4047.84C4057.94 3147.22 4066.66 3150.78 4074.01 3157.89 4081.36 3165.01 4085.02 3173.84 4085.02 3184.4 4084.57 3194.96 4080.78 3204.03 4073.66 3211.6 4066.55 3219.18 4058.17 3222.96 4048.53 3222.96H3906.68C3902.09 3222.96 3899.8 3220.9 3899.8 3216.77ZM4719.21 3036.36H4602.14L4584.24 3085.25C4583.33 3088.46 4581.26 3090.07 4578.05 3090.07H4370.09C4367.34 3090.07 4365.27 3088.46 4363.9 3085.25L4346.68 3036.36H4229.63L4403.14 3519.05H4545.68ZM4408.66 3209.19C4407.74 3206.9 4407.97 3204.83 4409.34 3203 4410.72 3201.16 4412.56 3200.24 4414.86 3200.24H4533.98C4539.95 3200.24 4542.01 3203.22 4540.18 3209.19L4480.96 3374.45C4479.58 3377.66 4477.29 3379.27 4474.07 3379.27 4470.86 3379.27 4468.79 3377.66 4467.88 3374.45" fill="#074ea2"/>
<path transform="matrix(.1,0,0,-.1,0,595.2756)" d="M2875.89 2912.36V2660.34C2875.89 2659.42 2876.12 2658.85 2876.57 2658.62 2877.04 2658.39 2877.49 2658.73 2877.95 2659.65L3048.72 2912.36H3148.56V2429.67H3038.39V2696.14C3038.39 2697.06 3038.16 2697.64 3037.7 2697.87 3037.24 2698.09 3036.79 2697.75 3036.32 2696.84L2863.49 2429.67H2765.71V2912.36ZM3605.09 2912.36V2429.67H3494.92V2553.61C3494.92 2558.2 3492.63 2560.5 3488.03 2560.5H3342.05C3337.92 2560.5 3335.86 2558.2 3335.86 2553.61V2429.67H3225.68V2912.36H3335.86V2677.55C3335.86 2672.96 3337.92 2670.67 3342.05 2670.67H3488.03C3492.63 2670.67 3494.92 2672.96 3494.92 2677.55V2912.36ZM4086.4 2674.11C4085.49 2671.82 4085.49 2669.75 4086.4 2667.91L4217.92 2430.36H4082.27L4010.66 2571.51C4009.29 2574.27 4006.99 2575.3 4003.77 2574.61 4000.56 2573.92 3998.95 2571.97 3998.95 2568.76V2430.36H3888.09V2568.76C3888.09 2571.97 3886.6 2573.92 3883.62 2574.61 3880.64 2575.3 3878.45 2574.27 3877.08 2571.51L3805.46 2430.36H3669.81L3800.64 2667.91C3802.02 2669.75 3802.02 2671.82 3800.64 2674.11L3673.95 2911.67H3809.6L3877.08 2773.27C3878.45 2770.05 3880.64 2768.79 3883.62 2769.48 3886.6 2770.17 3888.09 2772.35 3888.09 2776.02V2911.67H3998.95V2775.33C3998.95 2772.12 4000.56 2770.17 4003.77 2769.48 4006.99 2768.79 4009.29 2770.05 4010.66 2773.27L4078.14 2911.67H4213.1ZM4357.01 2912.36V2660.34C4357.01 2659.42 4357.24 2658.85 4357.7 2658.62 4358.16 2658.39 4358.62 2658.73 4359.08 2659.65L4529.85 2912.36H4629.69V2429.67H4519.52V2696.14C4519.52 2697.06 4519.29 2697.64 4518.83 2697.87 4518.37 2698.09 4517.91 2697.75 4517.45 2696.84L4344.62 2429.67H4246.84V2912.36ZM5086.21 2912.36V2429.67H4976.04V2553.61C4976.04 2558.2 4973.75 2560.5 4969.16 2560.5H4823.18C4819.05 2560.5 4816.98 2558.2 4816.98 2553.61V2429.67H4706.81V2912.36H4816.98V2677.55C4816.98 2672.96 4819.05 2670.67 4823.18 2670.67H4969.16C4973.75 2670.67 4976.04 2672.96 4976.04 2677.55V2912.36ZM5272.82 2912.36V2660.34C5272.82 2659.42 5273.05 2658.85 5273.51 2658.62 5273.96 2658.39 5274.43 2658.73 5274.88 2659.65L5445.65 2912.36H5545.49V2429.67H5435.32V2696.14C5435.32 2697.06 5435.09 2697.64 5434.63 2697.87 5434.18 2698.09 5433.71 2697.75 5433.26 2696.84L5260.43 2429.67H5162.65V2912.36ZM5854.67 2910.98C6123.71 2910.98 6126.48 2559.67 5854.67 2559.67H5732.1V2429.67H5622.62V2910.98ZM5853.98 2669.84C5978.97 2669.84 5980.56 2801.5 5854.67 2801.5H5739.67C5734.65 2801.5 5732.1 2798.95 5732.1 2793.92V2676.73C5732.1 2672.16 5734.63 2669.84 5739.67 2669.84ZM6232.7 2912.36V2660.34C6232.7 2659.42 6232.93 2658.85 6233.38 2658.62 6233.84 2658.39 6234.3 2658.73 6234.76 2659.65L6405.53 2912.36H6505.37V2429.67H6395.2V2696.14C6395.2 2697.06 6394.97 2697.64 6394.51 2697.87 6394.05 2698.09 6393.59 2697.75 6393.13 2696.84L6220.3 2429.67H6122.52V2912.36ZM6961.9 2912.36V2429.67H6851.72V2553.61C6851.72 2558.2 6849.43 2560.5 6844.84 2560.5H6698.86C6694.73 2560.5 6692.66 2558.2 6692.66 2553.61V2429.67H6582.49V2912.36H6692.66V2677.55C6692.66 2672.96 6694.73 2670.67 6698.86 2670.67H6844.84C6849.43 2670.67 6851.72 2672.96 6851.72 2677.55V2912.36ZM7401.9 2910.29V2800.81H7147.81V2430.36H7038.33V2910.29" fill="#0095da"/>
</g>
</svg>